PathFileType	4	(X/Y/Z)	Kaydara	
DataRate	CameraRate	NumFrames	NumMarkers	Units	OrigDataRate	OrigDataStartFrame	OrigNumFrames	
120.00	120.00	4	72	mm	120.00	164	261	
Frame#	Time	Hips			RightUpLeg			RightLeg			RightFoot			RightFoot_End			LeftUpLeg			LeftLeg			LeftFoot			LeftFoot_End			Spine			Spine1			Spine2			Spine3			Neck			Head			Head_End			RightShoulder			RightArm			RightForeArm			RightHand			RightHandThumb1			RightHandThumb2			RightHandThumb3			RightHandThumb3_End			RightInHandIndex			RightHandIndex1			RightHandIndex2			RightHandIndex3			RightHandIndex3_End			RightInHandMiddle			RightHandMiddle1			RightHandMiddle2			RightHandMiddle3			RightHandMiddle3_End			RightInHandRing			RightHandRing1			RightHandRing2			RightHandRing3			RightHandRing3_End			RightInHandPinky			RightHandPinky1			RightHandPinky2			RightHandPinky3			RightHandPinky3_End			LeftShoulder			LeftArm			LeftForeArm			LeftHand			LeftHandThumb1			LeftHandThumb2			LeftHandThumb3			LeftHandThumb3_End			LeftInHandIndex			LeftHandIndex1			LeftHandIndex2			LeftHandIndex3			LeftHandIndex3_End			LeftInHandMiddle			LeftHandMiddle1			LeftHandMiddle2			LeftHandMiddle3			LeftHandMiddle3_End			LeftInHandRing			LeftHandRing1			LeftHandRing2			LeftHandRing3			LeftHandRing3_End			LeftInHandPinky			LeftHandPinky1			LeftHandPinky2			LeftHandPinky3			LeftHandPinky3_End			
		X1	Y1	Z1	X2	Y2	Z2	X3	Y3	Z3	X4	Y4	Z4	X5	Y5	Z5	X6	Y6	Z6	X7	Y7	Z7	X8	Y8	Z8	X9	Y9	Z9	X10	Y10	Z10	X11	Y11	Z11	X12	Y12	Z12	X13	Y13	Z13	X14	Y14	Z14	X15	Y15	Z15	X16	Y16	Z16	X17	Y17	Z17	X18	Y18	Z18	X19	Y19	Z19	X20	Y20	Z20	X21	Y21	Z21	X22	Y22	Z22	X23	Y23	Z23	X24	Y24	Z24	X25	Y25	Z25	X26	Y26	Z26	X27	Y27	Z27	X28	Y28	Z28	X29	Y29	Z29	X30	Y30	Z30	X31	Y31	Z31	X32	Y32	Z32	X33	Y33	Z33	X34	Y34	Z34	X35	Y35	Z35	X36	Y36	Z36	X37	Y37	Z37	X38	Y38	Z38	X39	Y39	Z39	X40	Y40	Z40	X41	Y41	Z41	X42	Y42	Z42	X43	Y43	Z43	X44	Y44	Z44	X45	Y45	Z45	X46	Y46	Z46	X47	Y47	Z47	X48	Y48	Z48	X49	Y49	Z49	X50	Y50	Z50	X51	Y51	Z51	X52	Y52	Z52	X53	Y53	Z53	X54	Y54	Z54	X55	Y55	Z55	X56	Y56	Z56	X57	Y57	Z57	X58	Y58	Z58	X59	Y59	Z59	X60	Y60	Z60	X61	Y61	Z61	X62	Y62	Z62	X63	Y63	Z63	X64	Y64	Z64	X65	Y65	Z65	X66	Y66	Z66	X67	Y67	Z67	X68	Y68	Z68	X69	Y69	Z69	X70	Y70	Z70	X71	Y71	Z71	X72	Y72	Z72	

164	1.358	7081.203	893.81699	129.612	7135.767830248964	881.184017370934	86.70635372058423	7033.481904265158	478.2482089137247	49.62841317138511	7078.034019937551	115.94728902160945	-18.091970380219312	6985.758459453174	32.01160848104089	121.57474318596513	7037.660058333789	879.9939684281758	186.75943355404016	6929.595941553997	491.9225730023479	299.4975836980655	6814.03364828747	89.72382701200925	428.5554012248979	6670.575886769748	35.052375386370535	316.87482745487	7032.469104784322	1015.7676137465239	73.66022228140159	6979.627417747877	1080.7452741960706	24.611641980186253	6920.492304763065	1143.1022864771317	-28.624381037351625	6858.561818974482	1194.2288324360816	-83.092858669763	6790.876746383839	1249.7417516039154	-138.74373762285808	6721.289031457858	1294.9191058123743	-182.13278125331766	6582.088762145459	1371.6863500998293	-192.07089965861286	6827.275907273165	1236.2621551853854	-132.79556963743966	6879.092292417857	1254.9170671427146	-177.7787311935315	6981.336551796265	1097.4264825510427	-203.37888490400383	7089.958751838191	1032.9191189616088	-262.57261620944627	7100.1274435163405	1053.8999722563087	-274.60558813338923	7102.946827640281	1059.7341365350976	-294.3250566030569	7105.6390368547045	1060.0943145170618	-307.6632324470405	7108.5068718758475	1057.2269874095564	-318.4452384406441	7104.873883001148	1043.1577191461975	-273.58575226975216	7125.170036655879	1042.4463590356436	-292.0284351382775	7132.879114442177	1038.713852184976	-308.65415125433157	7131.982040315091	1037.6877073599976	-319.9617106675529	7127.401582525784	1037.7114475662913	-329.976183951822	7105.844727800845	1032.9577571043765	-272.0511736885905	7126.167945276669	1026.7476773752192	-289.2084774327839	7134.634336684747	1021.3271708284218	-307.0928695165984	7133.578068047329	1019.4424954461687	-320.6114251847406	7128.578861603692	1019.1541010872013	-331.5089880994684	7106.086642917975	1025.7781629837575	-270.45896069778075	7124.726638471103	1014.0052298299724	-284.3437290259485	7132.1285840486	1007.9130060444942	-299.6419430491908	7131.121721413805	1005.3687666393892	-312.5277170782016	7126.426883713996	1004.7534196849459	-322.70122141976475	7105.194984566785	1017.4567281076671	-268.3842191936694	7121.996435076366	1001.5569140916274	-279.7206142064115	7127.877073296202	994.59601174016	-291.45832408727586	7127.120137340457	991.7328704133078	-300.6093323362955	7122.9483113815395	990.6080238147426	-309.47871669789777	6799.296253289417	1225.2492465480857	-107.81894405113911	6759.356630121569	1175.3415687377337	-70.98657083258735	6906.307484759702	1084.7424525842425	-125.84624585110494	7042.717259426389	1033.69634961675	-184.62596074087608	7052.695527394623	1055.870786657338	-191.8792974314667	7071.784873402569	1062.071803542498	-185.0908485482676	7086.491357957205	1062.7792271095898	-179.77092811230423	7099.9600113764245	1060.2798878894318	-174.8291206207783	7058.430758950798	1045.7065337389877	-191.7802248802328	7088.743492674015	1047.4387540295695	-194.62950826668103	7111.142972996151	1044.6614739049069	-189.35211137894422	7122.282029150868	1043.555747330604	-182.34751322113664	7129.622113767096	1043.0593600336172	-174.03809675721558	7061.279931987721	1035.6356960706844	-189.7246144042521	7092.386806956947	1031.8790658638532	-191.39390860751905	7117.108344672135	1027.509081494655	-185.34567618819642	7130.681198452357	1025.5323189305052	-176.7559324978862	7138.777717697964	1024.6767176019102	-167.59637062728223	7062.5213572973835	1028.4936241487917	-188.27003010866903	7091.482877695078	1018.9773640090915	-188.70938142993367	7113.2666350040245	1013.8051776879793	-183.138365960278	7126.484252437469	1011.1744486643938	-174.69389340558487	7134.156498630399	1010.0268885327199	-166.00625709627786	7063.058081065926	1020.0764747360569	-185.9562990505278	7089.968863441656	1006.2172842712147	-185.17005698184872	7107.6549446792305	999.9900724654437	-180.23953352760267	7117.41321295381	997.0623733936836	-173.8530057742567	7124.277074191759	995.4652255726651	-166.02647636624232
165	1.367	7081.203	893.81699	129.612	7134.898368587129	880.6987279761605	86.46720761666893	7033.018303517544	477.688672859137	49.596262830033766	7078.775608731897	116.031359658525	-19.51597136308464	6987.01434228097	31.725509140602437	120.13153971271166	7038.5176791566755	880.4724940404501	186.99661793439856	6930.413485622637	492.37238308878125	299.5661497903949	6814.987002346955	89.81350862914262	427.4289186627638	6671.555394202863	34.825484316324385	315.90473234313635	7032.625918653775	1015.8019351989146	73.59979710640903	6979.830215678067	1080.8412155620356	24.582752809656576	6920.730844500025	1143.274691833748	-28.600934683761068	6858.80794023984	1194.4901747321417	-82.9847791247037	6791.141942489939	1250.0916158884859	-138.561983679092	6721.650182618217	1295.4110473948617	-181.93765926660961	6582.450499698307	1372.1768775081252	-191.7810976875229	6827.2833413034505	1236.2810820150905	-132.625705819344	6878.086475015856	1253.8172527641575	-177.22360975980905	6979.597397015593	1097.2384359620476	-200.61847150794028	7085.7777521985545	1032.519416420587	-257.98740100264627	7095.843394209285	1053.3988034429692	-269.8248613044675	7098.6430096466975	1059.1801371102017	-289.1834764565386	7101.303838215739	1059.5102709013506	-302.25595529938005	7104.13044451253	1056.6236691896777	-312.8041435007442	7100.5004917344595	1042.6670111465949	-268.7436776313061	7120.509818629877	1041.8607210461055	-286.70485394201904	7128.108747900563	1038.0857417463624	-302.951658414004	7127.228901039474	1037.0480102695033	-314.048682178067	7122.720513895954	1037.0721557285272	-323.90578112609103	7101.43766524308	1032.489825389607	-267.18461277469885	7121.4628822159375	1026.199466777864	-283.8590373629062	7129.805678923435	1020.7359570029275	-301.3282376856534	7128.768562664446	1018.83890685429	-314.59196274238604	7123.8474214642265	1018.5517357458776	-325.3169275646252	7101.662030447185	1025.3285308708846	-265.5876426273566	7120.016562052732	1013.4989101597752	-279.036271703707	7127.307787728593	1007.3727500602969	-293.97159927784793	7126.31780910539	1004.8184570763041	-306.6110359960827	7121.6956190608025	1004.2051525313228	-316.62200209812863	7100.766966611416	1017.0326257952598	-263.51935831592925	7117.300773450397	1001.0958075100358	-274.46041037147893	7123.089332665938	994.1135102515975	-285.90786838410685	7122.343058279751	991.2458318321605	-294.87935879172625	7118.234634638522	990.1244036453145	-303.6048537472878	6799.803187415093	1225.882475120989	-107.65800510135975	6760.684063562717	1177.2855599082538	-70.68398462044385	6905.835955467172	1085.6282114059538	-123.71514302769171	7039.919415049073	1033.585053014494	-180.99775265162756	7049.696793033	1055.6228033515179	-188.227239424061	7068.4809738402	1061.6969463234698	-181.5441532169659	7082.96166107151	1062.3212127140398	-176.27810440316404	7096.230716151559	1059.756995575207	-171.36452306369583	7055.368235974383	1045.4630061478797	-188.03537872905991	7085.217461961495	1047.019504489431	-190.72366831156	7107.282373846549	1044.12867986302	-185.4447366687033	7118.253619670494	1042.9665618085496	-178.52821811308203	7125.481917617146	1042.4330770027138	-170.35176110114296	7058.196850633472	1035.4128373742105	-185.93757911521388	7088.840517494828	1031.4959905818628	-187.4269931540674	7113.195750307386	1027.0054147087606	-181.37217949483997	7126.56555979554	1024.9622053875764	-172.88634630753793	7134.539478717026	1024.066784429924	-163.87112177454316	7059.435522356867	1028.2897624408806	-184.45601492737157	7087.9793585160805	1018.6461444464953	-184.70698775174353	7109.443322535125	1013.372484823809	-179.125518719558	7122.464811246531	1010.6795929342301	-170.77877116376976	7130.021651319409	1009.4955070387801	-162.2256613467184	7059.982950371644	1019.9003058906471	-182.12594786980287	7086.516893204768	1005.9410181922578	-181.15250283576898	7103.9479055066395	999.6387769970099	-176.20707999524555	7113.563605138965	996.6687480640616	-169.8886751778762	7120.325516394074	995.0409778650693	-162.1794968587147
166	1.375	7081.203	893.81699	129.612	7134.021890165788	880.2104344255457	86.22583239840047	7032.55461318823	477.12547715085356	49.558397305427874	7079.519373334589	116.1160041622125	-20.956999042133884	6988.276116727348	31.436939975427237	118.67057067835472	7039.38258420715	880.9540719845578	187.235850889001	6931.237772315833	492.82458827222115	299.63382713942	6815.948684388524	89.90212165882261	426.2904792528914	6672.542957565744	34.59390072708068	314.92528556783896	7032.782347703088	1015.8360581896536	73.5396381312072	6980.03192758763	1080.9368260415454	24.554934307697618	6920.967447898346	1143.4465991288407	-28.5753699971336	6859.051041547934	1194.7507396159083	-82.87316042353774	6791.4031098319465	1250.4404114922843	-138.3753304341513	6722.0075388706255	1295.9024419857265	-181.73721270786342	6582.808536904373	1372.6671059216094	-191.4841698275353	6827.284779398399	1236.2963338833893	-132.45159135338426	6877.064273061503	1252.7022707305866	-176.66241919787197	6977.832984322647	1097.0417524798222	-197.83003084993624	7081.547625466582	1032.101967092815	-253.34940876942355	7091.508119219697	1052.8765533851365	-264.9900004333485	7094.286893770641	1058.6024258242364	-283.9828057766451	7096.915528543525	1058.9008992812728	-296.78578590730854	7099.700171363504	1055.9938602830566	-307.0966875701264	7096.075276524724	1042.1556340624659	-263.8463082325395	7115.794133744836	1041.250988950179	-281.31988559204063	7123.281273769087	1037.4314504881143	-297.18237169863255	7122.418461883255	1036.3810879120224	-308.0656157422764	7117.982544570281	1036.4049446977428	-317.7627343504847	7096.9787672584	1032.0019448969217	-262.2619617101645	7116.702424070851	1025.628356268253	-278.44713491082223	7124.919847132192	1020.1196727693502	-295.49515701830114	7123.901656741858	1018.2090388854305	-308.5000960328292	7119.059020231116	1017.9223565975884	-319.0495911098261	7097.185657157012	1024.8595439937149	-260.6598362805824	7115.251569453107	1012.9710998839844	-273.666294140369	7122.430542085801	1006.809225212003	-288.2334388383424	7121.457238226275	1004.2437728067503	-300.62268117239057	7116.908113405772	1003.6318486992145	-310.46838917521563	7096.287460038559	1016.5899705713463	-258.5976610292915	7112.550861400335	1000.6146746049612	-269.1376490719888	7118.246154900565	993.6097449630616	-280.2905176350369	7117.510409277545	990.7368130555626	-289.079630204689	7113.465769258636	989.6182687983071	-297.65879956374886	6800.308712863345	1226.5175206106558	-107.49226204016745	6762.019408701216	1179.2423755932016	-70.37382877877593	6905.358212944133	1086.5151324920773	-121.55922240012612	7037.0929864395075	1033.462166057758	-177.32995400021946	7046.666776398006	1055.3607361648349	-184.53660192864535	7065.142748049439	1061.3067336100346	-177.96126213301721	7079.395472728392	1061.847099511017	-172.75040090157177	7092.463085556589	1059.2175064678515	-167.86584842673312	7052.273990218017	1045.2055560557317	-184.2505666114954	7081.654873945292	1046.583814400004	-186.7770772325205	7103.382014088865	1043.5783325081659	-181.49737756100433	7114.183958628332	1042.3595617443073	-174.67047725825358	7121.299573473626	1041.7890536470964	-166.6289695762865	7055.082098891333	1035.1765610846194	-182.10973177695138	7085.257870488283	1031.0973146010695	-183.41804181129595	7109.24332575168	1026.4850085656099	-177.35737611099708	7122.408303108173	1024.3750735979904	-168.97725819245454	7130.258646165358	1023.4399318528668	-160.10852321955483	7056.318174518055	1028.0728980492763	-180.6005942363246	7084.440254056334	1018.3003081272199	-180.6615305441988	7105.581428732357	1012.9242635104075	-175.0701357982196	7118.405080522542	1010.1689826361542	-166.82279687627002	7125.845604953333	1008.9484842396232	-158.40621007549294	7056.876651155831	1019.7117332968094	-178.2536539153699	7083.030220315457	1005.6512160232625	-177.091100904113	7100.203830257905	999.2733484770414	-172.13104064451102	7109.675747064468	996.2608891303094	-165.88190907023773	7116.334920939895	994.6026339366254	-158.29180569387114
167	1.383	7081.203	893.81699	129.612	7133.13855369813	879.7192410595028	85.98231373799493	7032.090949841132	476.5587332795563	49.514867502056504	7080.265156101792	116.20122372616149	-22.414744537546223	6989.543546317009	31.145962067099415	117.19214484895105	7040.254614567361	881.4385978477252	187.47704705763817	6932.068626443642	493.2790962211576	299.7005630298119	6816.918453750676	89.98967936658084	425.14032666417	6673.538345792204	34.35770187322718	313.93668183920613	7032.9383697866415	1015.8699795088904	73.47975422362637	6980.232527117216	1081.0320966497966	24.52819179910308	6921.202086673389	1143.617992234494	-28.547688493552478	6859.291098423854	1195.0105037569103	-82.75801646399998	6791.660224656278	1250.7881076637507	-138.18380123448514	6722.361055229885	1296.3932362664827	-181.53145726132553	6583.162829644422	1373.1569836761992	-191.18014272676217	6827.280241709743	1236.307953435687	-132.27322907871235	6876.025899699159	1251.5724508081098	-176.09515153658677	6976.04385272821	1096.836735314317	-195.01404397153834	7077.269496838616	1031.6673662316339	-248.65944718896858	7087.122786396708	1052.3338796089893	-260.1018329257211	7089.87967989509	1058.0016953775103	-278.7239471253439	7092.4753325441725	1058.2669144249808	-291.25368417678976	7095.217299980147	1055.338291778244	-301.32388264172874	7091.599420920283	1041.6242454756011	-258.89448770708407	7111.0242520531165	1040.617893398707	-275.8744624998032	7118.398007496003	1036.751743650967	-291.34730412420697	7117.552049631315	1035.687714415703	-302.0135738544632	7113.188999326881	1035.7105874475487	-311.54814664512594	7092.469220520442	1031.4947632898516	-257.28407554656917	7111.887843583161	1025.0350594191138	-272.9737178899425	7119.978163702006	1019.479067878867	-289.5946645256398	7118.978686402103	1017.5536512615743	-302.33692235695486	7114.2149918575205	1017.2667217356887	-312.7081206683297	7092.658709905618	1024.371841307683	-255.67640236959815	7110.432925362996	1012.4224899457136	-268.23474468315703	7117.498155063572	1006.2231522696885	-282.42848894787744	7116.541329953332	1003.6454433122603	-294.5637385760149	7112.065685880466	1003.0342357094045	-304.2415108686884	7091.757647963803	1016.1293879478371	-253.6199931068037	7107.747951767289	1000.1141808563366	-263.7532791357735	7113.348827101351	993.0854023488591	-274.60728519795884	7112.623486906338	990.206505514024	-283.21120345140974	7108.64300989819	989.0903081627731	-291.64164883153603	6800.8127630942	1227.1542821023816	-107.32175619608712	6763.362448042212	1181.2116427443036	-70.05628036611249	6904.87448734881	1087.4032147082469	-119.37892931629239	7034.238700261089	1033.3281284093182	-173.62320054246626	7043.606251300016	1055.085094474511	-180.80799750281253	7061.771018333492	1060.9017300441483	-174.34273667642412	7075.793651475692	1061.3574889226186	-169.18834877563205	7088.658010471576	1058.6620511918322	-164.3336073353069	7049.148810299382	1044.9346952617636	-180.42642280944133	7078.056614122183	1046.1322901996261	-182.7903681599559	7099.442838026588	1043.0110926955545	-177.51064291331198	7110.07401262809	1041.7354295893688	-170.77486720765285	7117.076056779414	1041.1279820408283	-162.87026038088527	7051.936468327207	1034.9273705225828	-178.24172035958406	7081.63975359332	1030.683628967503	-179.36770883683104	7105.252022894865	1025.948512050865	-173.30189558825077	7118.21040721518	1023.7715979114804	-165.02925958205213	7125.9362085544235	1022.7968444133539	-156.30912484219365	7053.170105080464	1027.8435260133786	-176.70442597934723	7080.866441859596	1017.9404218837567	-176.57368284430464	7101.68188703856	1012.4611294692279	-170.97287050635364	7114.306019642931	1009.643257101474	-162.82658804087933	7121.629327995371	1008.386468644878	-154.54848216806647	7053.739970636176	1019.5112387317519	-174.34008450442587	7079.509709021339	1005.3484176597483	-172.98653904376306	7096.423627429241	998.8943631214818	-168.0120902869263	7105.750565895019	995.8393886614895	-161.833357472093	7112.306222899537	994.1507931995756	-154.36401945413633
